<?xml version="1.0" encoding="utf-8" standalone="no"?>
<!DOCTYPE svg PUBLIC "-//W3C//DTD SVG 1.1//EN"
  "http://www.w3.org/Graphics/SVG/1.1/DTD/svg11.dtd">
<!-- Created with matplotlib (http://matplotlib.sourceforge.net/) -->
<svg height="180pt" version="1.1" viewBox="0 0 396 180" width="396pt" xmlns="http://www.w3.org/2000/svg" xmlns:xlink="http://www.w3.org/1999/xlink">
 <defs>
  <style type="text/css">
*{stroke-linecap:square;stroke-linejoin:round;}
  </style>
 </defs>
 <g id="figure_1">
  <g id="patch_1">
   <path d="
M0 180
L396 180
L396 0
L0 0
z
" style="fill:#ffffff;"/>
  </g>
  <g id="axes_1">
   <g id="patch_2">
    <path d="
M49.5 162
L356.4 162
L356.4 18
L49.5 18
z
" style="fill:#ffffff;"/>
   </g>
   <g id="patch_3">
    <path clip-path="url(#pbb3c607ebe)" d="
M69.96 162
L90.42 162
L90.42 159.696
L69.96 159.696
z
" style="fill:#0000ff;stroke:#000000;"/>
   </g>
   <g id="patch_4">
    <path clip-path="url(#pbb3c607ebe)" d="
M274.56 162
L295.02 162
L295.02 161.424
L274.56 161.424
z
" style="fill:#0000ff;stroke:#000000;"/>
   </g>
   <g id="patch_5">
    <path clip-path="url(#pbb3c607ebe)" d="
M90.42 162
L110.88 162
L110.88 25.344
L90.42 25.344
z
" style="fill:#ff00ff;stroke:#000000;"/>
   </g>
   <g id="patch_6">
    <path clip-path="url(#pbb3c607ebe)" d="
M295.02 162
L315.48 162
L315.48 162
L295.02 162
z
" style="fill:#ff00ff;stroke:#000000;"/>
   </g>
   <g id="patch_7">
    <path clip-path="url(#pbb3c607ebe)" d="
M110.88 162
L131.34 162
L131.34 156.96
L110.88 156.96
z
" style="fill:#00ff00;stroke:#000000;"/>
   </g>
   <g id="patch_8">
    <path clip-path="url(#pbb3c607ebe)" d="
M315.48 162
L335.94 162
L335.94 18.576
L315.48 18.576
z
" style="fill:#00ff00;stroke:#000000;"/>
   </g>
   <g id="matplotlib.axis_1"/>
   <g id="matplotlib.axis_2">
    <g id="ytick_1">
     <g id="line2d_1">
      <defs>
       <path d="
M0 0
L4 0" id="me8a85f7bf6" style="stroke:#000000;stroke-linecap:butt;stroke-width:0.5;"/>
      </defs>
      <g>
       <use style="stroke:#000000;stroke-linecap:butt;stroke-width:0.5;" x="49.5" xlink:href="#me8a85f7bf6" y="162.0"/>
      </g>
     </g>
     <g id="line2d_2">
      <defs>
       <path d="
M0 0
L-4 0" id="m1a32005dea" style="stroke:#000000;stroke-linecap:butt;stroke-width:0.5;"/>
      </defs>
      <g>
       <use style="stroke:#000000;stroke-linecap:butt;stroke-width:0.5;" x="356.4" xlink:href="#m1a32005dea" y="162.0"/>
      </g>
     </g>
     <g id="text_1">
      <!-- $0$ -->
      <defs>
       <path d="
M42 31.6406
C42 37.75 41.9062 48.125 37.7031 56.1094
C34 63.1094 28.0938 65.5938 22.9062 65.5938
C18.0938 65.5938 12 63.4062 8.20312 56.2031
C4.20312 48.7188 3.79688 39.4375 3.79688 31.6406
C3.79688 25.9531 3.90625 17.2812 7 9.67188
C11.2969 -0.609375 19 -2 22.9062 -2
C27.5 -2 34.5 -0.109375 38.5938 9.375
C41.5938 16.2812 42 24.3594 42 31.6406
M22.9062 -0.40625
C16.5 -0.40625 12.7031 5.07812 11.2969 12.6875
C10.2031 18.5625 10.2031 27.1562 10.2031 32.75
C10.2031 40.4375 10.2031 46.8281 11.5 52.9219
C13.4062 61.3906 19 64 22.9062 64
C27 64 32.2969 61.2969 34.2031 53.125
C35.5 47.4375 35.5938 40.7344 35.5938 32.75
C35.5938 26.25 35.5938 18.2656 34.4062 12.375
C32.2969 1.48438 26.4062 -0.40625 22.9062 -0.40625" id="CMR17-48"/>
      </defs>
      <g transform="translate(39.6470097486 165.852215265)scale(0.12 -0.12)">
       <use transform="scale(0.996264009963)" xlink:href="#CMR17-48"/>
      </g>
     </g>
    </g>
    <g id="ytick_2">
     <g id="line2d_3">
      <g>
       <use style="stroke:#000000;stroke-linecap:butt;stroke-width:0.5;" x="49.5" xlink:href="#me8a85f7bf6" y="133.2"/>
      </g>
     </g>
     <g id="line2d_4">
      <g>
       <use style="stroke:#000000;stroke-linecap:butt;stroke-width:0.5;" x="356.4" xlink:href="#m1a32005dea" y="133.2"/>
      </g>
     </g>
     <g id="text_2">
      <!-- $20$ -->
      <defs>
       <path d="
M41.7031 15.4531
L39.9062 15.4531
C38.9062 8.375 38.0938 7.17188 37.7031 6.5625
C37.2031 5.76562 30 5.76562 28.5938 5.76562
L9.40625 5.76562
C13 9.67188 20 16.75 28.5 24.9531
C34.5938 30.7344 41.7031 37.5312 41.7031 47.4219
C41.7031 59.2188 32.2969 66 21.7969 66
C10.7969 66 4.09375 56.3125 4.09375 47.3438
C4.09375 43.4375 7 42.9375 8.20312 42.9375
C9.20312 42.9375 12.2031 43.5469 12.2031 47.0312
C12.2031 50.1094 9.59375 51 8.20312 51
C7.59375 51 7 50.9062 6.59375 50.7031
C8.5 59.2188 14.2969 63.4062 20.4062 63.4062
C29.0938 63.4062 34.7969 56.5156 34.7969 47.4219
C34.7969 38.7344 29.7031 31.25 24 24.75
L4.09375 2.28125
L4.09375 0
L39.2969 0
z
" id="CMR17-50"/>
      </defs>
      <g transform="translate(33.7940194972 137.052215265)scale(0.12 -0.12)">
       <use transform="scale(0.996264009963)" xlink:href="#CMR17-50"/>
       <use transform="translate(45.6904771171 0.0)scale(0.996264009963)" xlink:href="#CMR17-48"/>
      </g>
     </g>
    </g>
    <g id="ytick_3">
     <g id="line2d_5">
      <g>
       <use style="stroke:#000000;stroke-linecap:butt;stroke-width:0.5;" x="49.5" xlink:href="#me8a85f7bf6" y="104.4"/>
      </g>
     </g>
     <g id="line2d_6">
      <g>
       <use style="stroke:#000000;stroke-linecap:butt;stroke-width:0.5;" x="356.4" xlink:href="#m1a32005dea" y="104.4"/>
      </g>
     </g>
     <g id="text_3">
      <!-- $40$ -->
      <defs>
       <path d="
M33.5938 64.3281
C33.5938 66.4062 33.5 66.5 31.7031 66.5
L2 19.5938
L2 17
L27.7969 17
L27.7969 7.14062
C27.7969 3.5 27.5938 2.5 20.5938 2.5
L18.7031 2.5
L18.7031 0
C21.9062 0 27.2969 0 30.7031 0
C34.0938 0 39.5 0 42.7031 0
L42.7031 2.5
L40.7969 2.5
C33.7969 2.5 33.5938 3.5 33.5938 7.14062
L33.5938 17
L43.7969 17
L43.7969 19.5938
L33.5938 19.5938
z

M28.0938 57.7656
L28.0938 19.5938
L4 19.5938
z
" id="CMR17-52"/>
      </defs>
      <g transform="translate(33.7940194972 108.252215265)scale(0.12 -0.12)">
       <use transform="scale(0.996264009963)" xlink:href="#CMR17-52"/>
       <use transform="translate(45.6904771171 0.0)scale(0.996264009963)" xlink:href="#CMR17-48"/>
      </g>
     </g>
    </g>
    <g id="ytick_4">
     <g id="line2d_7">
      <g>
       <use style="stroke:#000000;stroke-linecap:butt;stroke-width:0.5;" x="49.5" xlink:href="#me8a85f7bf6" y="75.6"/>
      </g>
     </g>
     <g id="line2d_8">
      <g>
       <use style="stroke:#000000;stroke-linecap:butt;stroke-width:0.5;" x="356.4" xlink:href="#m1a32005dea" y="75.6"/>
      </g>
     </g>
     <g id="text_4">
      <!-- $60$ -->
      <defs>
       <path d="
M10.5938 34
C10.5938 57.6562 21.7969 63 28.2969 63
C30.4062 63 35.5 62.6406 37.5 59
C35.9062 59 32.9062 59 32.9062 55.5156
C32.9062 52.8281 35.0938 51.9219 36.5 51.9219
C37.4062 51.9219 40.0938 52.3125 40.0938 55.625
C40.0938 61.7812 35.0938 65.2969 28.2031 65.2969
C16.2969 65.2969 3.79688 52.9688 3.79688 31
C3.79688 3.95312 15.0938 -2 23.0938 -2
C32.7969 -2 42 6.67188 42 20.0469
C42 32.5156 33.9062 41.5938 23.7031 41.5938
C17.5938 41.5938 13.0938 37.6094 10.5938 30.625
z

M23.0938 0.390625
C10.7969 0.390625 10.7969 18.75 10.7969 22.4375
C10.7969 29.625 14.2031 40 23.5 40
C25.2031 40 30.0938 40 33.4062 33.125
C35.2031 29.2188 35.2031 25.1406 35.2031 20.1406
C35.2031 14.75 35.2031 10.7812 33.0938 6.78125
C30.9062 2.67188 27.7031 0.390625 23.0938 0.390625" id="CMR17-54"/>
      </defs>
      <g transform="translate(33.7940194972 79.4522152645)scale(0.12 -0.12)">
       <use transform="scale(0.996264009963)" xlink:href="#CMR17-54"/>
       <use transform="translate(45.6904771171 0.0)scale(0.996264009963)" xlink:href="#CMR17-48"/>
      </g>
     </g>
    </g>
    <g id="ytick_5">
     <g id="line2d_9">
      <g>
       <use style="stroke:#000000;stroke-linecap:butt;stroke-width:0.5;" x="49.5" xlink:href="#me8a85f7bf6" y="46.8"/>
      </g>
     </g>
     <g id="line2d_10">
      <g>
       <use style="stroke:#000000;stroke-linecap:butt;stroke-width:0.5;" x="356.4" xlink:href="#m1a32005dea" y="46.8"/>
      </g>
     </g>
     <g id="text_5">
      <!-- $80$ -->
      <defs>
       <path d="
M27.2031 35.375
C33.5 38.5625 39.9062 43.3281 39.9062 50.9844
C39.9062 60.0312 31.0938 65.2969 23 65.2969
C13.9062 65.2969 5.90625 58.7344 5.90625 49.6875
C5.90625 47.2031 6.5 42.9219 10.4062 39.1406
C11.4062 38.1562 15.5938 35.1719 18.2969 33.2812
C13.7969 30.9844 3.29688 25.5312 3.29688 14.5938
C3.29688 4.35938 13.0938 -2 22.7969 -2
C33.5 -2 42.5 5.65625 42.5 15.7969
C42.5 24.8438 36.4062 29.0312 32.4062 31.7031
z

M14.0938 44.125
C13.2969 44.625 9.29688 47.7031 9.29688 52.375
C9.29688 58.4375 15.5938 63 22.7969 63
C30.7031 63 36.5 57.4531 36.5 50.9844
C36.5 41.7344 26.0938 36.4688 25.5938 36.4688
C25.5 36.4688 25.4062 36.4688 24.5938 37.0781
z

M32.5 23.7344
C34 22.6406 38.7969 19.375 38.7969 13.2969
C38.7969 5.95312 31.4062 0.390625 23 0.390625
C13.9062 0.390625 7 6.84375 7 14.6875
C7 22.5469 13.0938 29.0938 20 32.1875
z
" id="CMR17-56"/>
      </defs>
      <g transform="translate(33.7940194972 50.6522152645)scale(0.12 -0.12)">
       <use transform="scale(0.996264009963)" xlink:href="#CMR17-56"/>
       <use transform="translate(45.6904771171 0.0)scale(0.996264009963)" xlink:href="#CMR17-48"/>
      </g>
     </g>
    </g>
    <g id="ytick_6">
     <g id="line2d_11">
      <g>
       <use style="stroke:#000000;stroke-linecap:butt;stroke-width:0.5;" x="49.5" xlink:href="#me8a85f7bf6" y="18.0"/>
      </g>
     </g>
     <g id="line2d_12">
      <g>
       <use style="stroke:#000000;stroke-linecap:butt;stroke-width:0.5;" x="356.4" xlink:href="#m1a32005dea" y="18.0"/>
      </g>
     </g>
     <g id="text_6">
      <!-- $100$ -->
      <defs>
       <path d="
M26.5938 63.3125
C26.5938 65.4062 26.5 65.5 25.0938 65.5
C21.2031 61.1875 15.2969 59.7969 9.70312 59.7969
C9.40625 59.7969 8.90625 59.7969 8.79688 59.5
C8.70312 59.2969 8.70312 59.0938 8.70312 57
C11.7969 57 17 57.5938 21 59.9844
L21 7.20312
C21 3.6875 20.7969 2.5 12.2031 2.5
L9.20312 2.5
L9.20312 0
C14 0 19 0 23.7969 0
C28.5938 0 33.5938 0 38.4062 0
L38.4062 2.5
L35.4062 2.5
C26.7969 2.5 26.5938 3.59375 26.5938 7.15625
z
" id="CMR17-49"/>
      </defs>
      <g transform="translate(27.9410292458 21.8522152645)scale(0.12 -0.12)">
       <use transform="scale(0.996264009963)" xlink:href="#CMR17-49"/>
       <use transform="translate(45.6904771171 0.0)scale(0.996264009963)" xlink:href="#CMR17-48"/>
       <use transform="translate(91.3809542341 0.0)scale(0.996264009963)" xlink:href="#CMR17-48"/>
      </g>
     </g>
    </g>
    <g id="text_7">
     <!-- Fraction of particles [\%] -->
     <defs>
      <path d="
M25 73
L6.40625 73
L6.40625 -21.2031
L25 -21.2031
L25 -14
L14.7031 -14
L14.7031 65.7812
L25 65.7812
z
" id="Nimbus_Sans_L_Regular-91"/>
      <path d="
M2.29688 -21.2031
L20.9062 -21.2031
L20.9062 73
L2.29688 73
L2.29688 65.7812
L12.5938 65.7812
L12.5938 -14
L2.29688 -14
z
" id="Nimbus_Sans_L_Regular-93"/>
      <path d="
M53.5 5.20312
C52.5938 5 52.2031 5 51.7031 5
C48.7969 5 47.2031 6.48438 47.2031 9.07812
L47.2031 39.7656
C47.2031 49.0156 40.4062 54 27.5 54
C19.9062 54 13.5938 51.8125 10.0938 47.9062
C7.70312 45.2031 6.70312 42.2188 6.5 37.0312
L14.9062 37.0312
C15.5938 43.3906 19.4062 46.2812 27.2031 46.2812
C34.7031 46.2812 38.9062 43.4844 38.9062 38.5156
L38.9062 36.3281
C38.9062 32.8281 36.7969 31.3438 30.2031 30.5469
C18.4062 29.0625 16.5938 28.6562 13.4062 27.3594
C7.29688 24.875 4.20312 20.1875 4.20312 13.4219
C4.20312 3.96875 10.7969 -2 21.4062 -2
C28 -2 33.2969 0.296875 39.2031 5.70312
C39.7969 0.390625 42.4062 -2 47.7969 -2
C49.5 -2 50.7969 -1.8125 53.5 -1.09375
z

M38.9062 16.75
C38.9062 13.9531 38.0938 12.2656 35.5938 9.98438
C32.2031 6.89062 28.0938 5.3125 23.2031 5.3125
C16.7031 5.3125 12.9062 8.39062 12.9062 13.6562
C12.9062 19.1406 16.5938 21.9219 25.5 23.2188
C34.2969 24.4062 36.0938 24.8125 38.9062 26.0938
z
" id="Nimbus_Sans_L_Regular-97"/>
      <path d="
M47.0938 34.9375
C46.7031 40.0312 45.5938 43.3281 43.5938 46.2188
C40 51.1094 33.7031 54 26.4062 54
C12.2969 54 3.09375 42.8438 3.09375 25.5
C3.09375 8.65625 12.0938 -2 26.2969 -2
C38.7969 -2 46.7031 5.46875 47.7031 18.2344
L39.2969 18.2344
C37.9062 9.875 33.5938 5.70312 26.5 5.70312
C17.2969 5.70312 11.7969 13.1719 11.7969 25.5
C11.7969 38.5312 17.2031 46.2812 26.2969 46.2812
C33.2969 46.2812 37.7031 42.2031 38.7031 34.9375
z
" id="Nimbus_Sans_L_Regular-99"/>
      <path d="
M5.40625 -22
L13.7969 -22
L13.7969 5
C18.2031 -0.421875 23.0938 -2.8125 29.9062 -2.8125
C43.4062 -2.8125 52.2969 8.15625 52.2969 24.9844
C52.2969 42.7188 43.7031 53.8125 29.7969 53.8125
C22.7031 53.8125 17 50.5938 13.0938 44.3906
L13.0938 52.3281
L5.40625 52.3281
z

M28.4062 46
C37.5938 46 43.5938 37.8125 43.5938 25.1875
C43.5938 13.1719 37.5 5 28.4062 5
C19.5938 5 13.7969 13.0781 13.7969 25.4844
C13.7969 37.9219 19.5938 46 28.4062 46" id="Nimbus_Sans_L_Regular-112"/>
      <path d="
M18.2969 33
L53.0938 33
L53.0938 41.2188
L18.2969 41.2188
L18.2969 64.7812
L57.9062 64.7812
L57.9062 73
L9 73
L9 -0.21875
L18.2969 -0.21875
z
" id="Nimbus_Sans_L_Regular-70"/>
      <path d="
M51.2969 24
C51.2969 31.875 50.7031 36.5938 49.2031 40.4219
C45.7969 48.875 37.7969 54 28 54
C13.4062 54 4 42.8438 4 25.7031
C4 8.54688 13.0938 -2 27.7969 -2
C39.7969 -2 48.0938 4.875 50.2031 16.375
L41.7969 16.375
C39.5 9.35938 34.7969 5.70312 28.0938 5.70312
C22.7969 5.70312 18.2969 8.14062 15.5 12.6094
C13.5 15.6562 12.7969 18.7188 12.7031 24
z

M12.9062 30.8125
C13.5938 40.1875 19.5 46.2812 27.9062 46.2812
C36.0938 46.2812 42.4062 39.7031 42.4062 31.4062
C42.4062 31.2031 42.4062 31.0156 42.2969 30.8125
z
" id="Nimbus_Sans_L_Regular-101"/>
      <path d="
M15.2031 73
L6.79688 73
L6.79688 -0.03125
L15.2031 -0.03125
z
" id="Nimbus_Sans_L_Regular-108"/>
      <path d="
M19.9062 69
C10.5938 69 2.90625 61.1094 2.90625 51.4844
C2.90625 41.8906 10.5938 34 20 34
C29.2969 34 37 41.8906 37 51.2812
C37 61.2188 29.5 69 19.9062 69
M19.9062 61.9844
C25.5938 61.9844 30.0938 57.3125 30.0938 51.3906
C30.0938 45.6719 25.5 41.0156 20 41.0156
C14.4062 41.0156 9.79688 45.7969 9.79688 51.4844
C9.79688 57.3125 14.4062 61.9844 19.9062 61.9844
M60.9062 71
L21.4062 -2
L28 -2
L67.5 71
z

M68.7969 32
C59.5 32 51.7969 24.3281 51.7969 15.0469
C51.7969 5.6875 59.5 -2 68.9062 -2
C78.0938 -2 85.9062 5.6875 85.9062 14.8594
C85.9062 24.4219 78.4062 32 68.7969 32
M68.7969 25
C74.5 25 79 20.5469 79 14.9062
C79 9.54688 74.4062 5.10938 68.9062 5.10938
C63.2969 5.10938 58.7031 9.54688 58.7031 15.0938
C58.7031 20.5469 63.2969 25 68.7969 25" id="Nimbus_Sans_L_Regular-37"/>
      <path d="
M15 52.4844
L6.70312 52.4844
L6.70312 0
L15 0
z

M15 73
L6.59375 73
L6.59375 62.4844
L15 62.4844
z
" id="Nimbus_Sans_L_Regular-105"/>
      <path d="
M43.7969 37.9219
C43.7031 48.2031 36.9062 54 24.7969 54
C12.5938 54 4.70312 47.7188 4.70312 38.0625
C4.70312 29.8906 8.90625 26.0156 21.2969 23.0312
L29.0938 21.1406
C34.9062 19.7344 37.2031 17.6562 37.2031 13.875
C37.2031 9 32.2969 5.70312 25 5.70312
C20.5 5.70312 16.7031 7 14.5938 9.1875
C13.2969 10.6875 12.7031 12.1719 12.2031 15.8438
L3.40625 15.8438
C3.79688 3.76562 10.5938 -2 24.2969 -2
C37.5 -2 45.9062 4.45312 45.9062 14.5156
C45.9062 22.2812 41.5 26.5781 31.0938 29.0625
L23.0938 30.9531
C16.2969 32.5312 13.4062 34.7344 13.4062 38.4062
C13.4062 43.1875 17.7031 46.2812 24.5 46.2812
C31.2031 46.2812 34.7969 43.3906 35 37.9219
z
" id="Nimbus_Sans_L_Regular-115"/>
      <path d="
M7 52.4844
L7 0
L15.4062 0
L15.4062 28.9531
C15.4062 39.6719 21 46.6875 29.5938 46.6875
C36.2031 46.6875 40.4062 42.6719 40.4062 36.3594
L40.4062 0
L48.7031 0
L48.7031 39.6719
C48.7031 48.3906 42.2031 54 32.0938 54
C24.2969 54 19.2969 50.9844 14.7031 43.6875
L14.7031 52.4844
z
" id="Nimbus_Sans_L_Regular-110"/>
      <path d="
M27.2031 54
C12.5 54 3.59375 43.5312 3.59375 26
C3.59375 8.45312 12.4062 -2 27.2969 -2
C42 -2 51 8.45312 51 25.5938
C51 43.6406 42.2969 54 27.2031 54
M27.2969 46.2812
C36.7031 46.2812 42.2969 38.625 42.2969 25.7031
C42.2969 13.4531 36.5 5.70312 27.2969 5.70312
C18 5.70312 12.2969 13.3594 12.2969 26
C12.2969 38.5312 18 46.2812 27.2969 46.2812" id="Nimbus_Sans_L_Regular-111"/>
      <path d="
M25.4062 52.8125
L16.7969 52.8125
L16.7969 67
L8.5 67
L8.5 52.8125
L1.40625 52.8125
L1.40625 46
L8.5 46
L8.5 6.3125
C8.5 1 12.0938 -2 18.5938 -2
C20.5938 -2 22.5938 -1.8125 25.4062 -1.29688
L25.4062 5.71875
C24.2969 5.40625 23 5.3125 21.4062 5.3125
C17.7969 5.3125 16.7969 6.3125 16.7969 10.0156
L16.7969 46
L25.4062 46
z
" id="Nimbus_Sans_L_Regular-116"/>
      <path d="
M6.90625 52.4844
L6.90625 0
L15.2969 0
L15.2969 27.25
C15.2969 34.7656 17.2031 39.6719 21.2031 42.5781
C23.7969 44.4844 26.2969 45.0781 32.0938 45.0781
L32.0938 53.7031
C30.7031 53.8906 30 54 28.9062 54
C23.5 54 19.4062 50.7812 14.5938 42.9688
L14.5938 52.4844
z
" id="Nimbus_Sans_L_Regular-114"/>
      <path d="
M25.7969 52
L17.0938 52
L17.0938 60.25
C17.0938 63.7812 19.0938 65.5938 22.9062 65.5938
C23.5938 65.5938 23.9062 65.5938 25.7969 65.5938
L25.7969 72.5
C23.9062 72.9062 22.7969 73 21.0938 73
C13.4062 73 8.79688 68.5625 8.79688 60.9844
L8.79688 52
L1.79688 52
L1.79688 45.1875
L8.79688 45.1875
L8.79688 -0.40625
L17.0938 -0.40625
L17.0938 45.1875
L25.7969 45.1875
z
" id="Nimbus_Sans_L_Regular-102"/>
     </defs>
     <g transform="translate(22.9410292458 152.363161156)rotate(-90.0)scale(0.12 -0.12)">
      <use transform="translate(0.0 21.2198791884)scale(0.996264009963)" xlink:href="#Nimbus_Sans_L_Regular-70"/>
      <use transform="translate(56.3888986856 21.2198791884)scale(0.996264009963)" xlink:href="#Nimbus_Sans_L_Regular-114"/>
      <use transform="translate(88.5680316246 21.2198791884)scale(0.996264009963)" xlink:href="#Nimbus_Sans_L_Regular-97"/>
      <use transform="translate(143.959708588 21.2198791884)scale(0.996264009963)" xlink:href="#Nimbus_Sans_L_Regular-99"/>
      <use transform="translate(193.772909086 21.2198791884)scale(0.996264009963)" xlink:href="#Nimbus_Sans_L_Regular-116"/>
      <use transform="translate(221.468078689 21.2198791884)scale(0.996264009963)" xlink:href="#Nimbus_Sans_L_Regular-105"/>
      <use transform="translate(243.584863038 21.2198791884)scale(0.996264009963)" xlink:href="#Nimbus_Sans_L_Regular-111"/>
      <use transform="translate(298.976540001 21.2198791884)scale(0.996264009963)" xlink:href="#Nimbus_Sans_L_Regular-110"/>
      <use transform="translate(382.063386568 21.2198791884)scale(0.996264009963)" xlink:href="#Nimbus_Sans_L_Regular-111"/>
      <use transform="translate(437.455063531 21.2198791884)scale(0.996264009963)" xlink:href="#Nimbus_Sans_L_Regular-102"/>
      <use transform="translate(492.845402738 21.2198791884)scale(0.996264009963)" xlink:href="#Nimbus_Sans_L_Regular-112"/>
      <use transform="translate(548.237079701 21.2198791884)scale(0.996264009963)" xlink:href="#Nimbus_Sans_L_Regular-97"/>
      <use transform="translate(603.628756664 21.2198791884)scale(0.996264009963)" xlink:href="#Nimbus_Sans_L_Regular-114"/>
      <use transform="translate(640.788084721 21.2198791884)scale(0.996264009963)" xlink:href="#Nimbus_Sans_L_Regular-116"/>
      <use transform="translate(668.483254325 21.2198791884)scale(0.996264009963)" xlink:href="#Nimbus_Sans_L_Regular-105"/>
      <use transform="translate(690.600038673 21.2198791884)scale(0.996264009963)" xlink:href="#Nimbus_Sans_L_Regular-99"/>
      <use transform="translate(740.413239171 21.2198791884)scale(0.996264009963)" xlink:href="#Nimbus_Sans_L_Regular-108"/>
      <use transform="translate(762.53002352 21.2198791884)scale(0.996264009963)" xlink:href="#Nimbus_Sans_L_Regular-101"/>
      <use transform="translate(817.921700484 21.2198791884)scale(0.996264009963)" xlink:href="#Nimbus_Sans_L_Regular-115"/>
      <use transform="translate(895.430070585 21.2198791884)scale(0.996264009963)" xlink:href="#Nimbus_Sans_L_Regular-91"/>
      <use transform="translate(923.125240188 21.2198791884)scale(0.996264009963)" xlink:href="#Nimbus_Sans_L_Regular-37"/>
      <use transform="translate(1011.69214688 21.2198791884)scale(0.996264009963)" xlink:href="#Nimbus_Sans_L_Regular-93"/>
     </g>
    </g>
   </g>
   <g id="patch_9">
    <path d="
M49.5 18
L356.4 18" style="fill:none;stroke:#000000;"/>
   </g>
   <g id="patch_10">
    <path d="
M356.4 162
L356.4 18" style="fill:none;stroke:#000000;"/>
   </g>
   <g id="patch_11">
    <path d="
M49.5 162
L356.4 162" style="fill:none;stroke:#000000;"/>
   </g>
   <g id="patch_12">
    <path d="
M49.5 162
L49.5 18" style="fill:none;stroke:#000000;"/>
   </g>
  </g>
 </g>
 <defs>
  <clipPath id="pbb3c607ebe">
   <rect height="144.0" width="306.9" x="49.5" y="18.0"/>
  </clipPath>
 </defs>
</svg>
